<mxfile host="app.diagrams.net" agent="Mozilla/5.0 (Windows NT 10.0; Win64; x64) AppleWebKit/537.36 (KHTML, like Gecko) Chrome/129.0.0.0 Safari/537.36 Edg/129.0.0.0" version="24.7.17">
  <diagram name="Page-1" id="7f60-JYQHoIR9ixTyBDR">
    <mxGraphModel dx="1101" dy="604" grid="1" gridSize="10" guides="1" tooltips="1" connect="1" arrows="1" fold="1" page="1" pageScale="1" pageWidth="850" pageHeight="1100" math="0" shadow="0">
      <root>
        <mxCell id="0" />
        <mxCell id="1" parent="0" />
        <mxCell id="rWnAVEmdezh-Uz3qvkcR-1" value="Doris" style="strokeWidth=2;html=1;shape=mxgraph.flowchart.database;whiteSpace=wrap;labelBackgroundColor=none;" vertex="1" parent="1">
          <mxGeometry x="710" y="210" width="70" height="70" as="geometry" />
        </mxCell>
        <mxCell id="rWnAVEmdezh-Uz3qvkcR-18" value="" style="edgeStyle=none;rounded=0;orthogonalLoop=1;jettySize=auto;html=1;" edge="1" parent="1" source="rWnAVEmdezh-Uz3qvkcR-2" target="rWnAVEmdezh-Uz3qvkcR-1">
          <mxGeometry relative="1" as="geometry" />
        </mxCell>
        <mxCell id="rWnAVEmdezh-Uz3qvkcR-19" value="" style="edgeStyle=none;rounded=0;orthogonalLoop=1;jettySize=auto;html=1;" edge="1" parent="1" source="rWnAVEmdezh-Uz3qvkcR-2" target="rWnAVEmdezh-Uz3qvkcR-5">
          <mxGeometry relative="1" as="geometry" />
        </mxCell>
        <mxCell id="rWnAVEmdezh-Uz3qvkcR-2" value="Kafka3" style="strokeWidth=2;html=1;shape=mxgraph.flowchart.direct_data;whiteSpace=wrap;labelBackgroundColor=none;" vertex="1" parent="1">
          <mxGeometry x="700" y="360" width="90" height="60" as="geometry" />
        </mxCell>
        <mxCell id="rWnAVEmdezh-Uz3qvkcR-11" value="" style="edgeStyle=orthogonalEdgeStyle;rounded=0;orthogonalLoop=1;jettySize=auto;html=1;" edge="1" parent="1" source="rWnAVEmdezh-Uz3qvkcR-3" target="rWnAVEmdezh-Uz3qvkcR-10">
          <mxGeometry relative="1" as="geometry" />
        </mxCell>
        <mxCell id="rWnAVEmdezh-Uz3qvkcR-3" value="Kafka2" style="strokeWidth=2;html=1;shape=mxgraph.flowchart.direct_data;whiteSpace=wrap;labelBackgroundColor=none;" vertex="1" parent="1">
          <mxGeometry x="360" y="360" width="90" height="60" as="geometry" />
        </mxCell>
        <mxCell id="rWnAVEmdezh-Uz3qvkcR-8" value="" style="edgeStyle=orthogonalEdgeStyle;rounded=0;orthogonalLoop=1;jettySize=auto;html=1;" edge="1" parent="1" source="rWnAVEmdezh-Uz3qvkcR-4" target="rWnAVEmdezh-Uz3qvkcR-6">
          <mxGeometry relative="1" as="geometry" />
        </mxCell>
        <mxCell id="rWnAVEmdezh-Uz3qvkcR-4" value="Kafka1" style="strokeWidth=2;html=1;shape=mxgraph.flowchart.direct_data;whiteSpace=wrap;labelBackgroundColor=none;" vertex="1" parent="1">
          <mxGeometry x="30" y="360" width="90" height="60" as="geometry" />
        </mxCell>
        <mxCell id="rWnAVEmdezh-Uz3qvkcR-27" value="" style="edgeStyle=none;rounded=0;orthogonalLoop=1;jettySize=auto;html=1;dashed=1;" edge="1" parent="1" source="rWnAVEmdezh-Uz3qvkcR-5" target="rWnAVEmdezh-Uz3qvkcR-25">
          <mxGeometry relative="1" as="geometry" />
        </mxCell>
        <mxCell id="rWnAVEmdezh-Uz3qvkcR-5" value="Hive" style="strokeWidth=2;html=1;shape=mxgraph.flowchart.database;whiteSpace=wrap;labelBackgroundColor=none;" vertex="1" parent="1">
          <mxGeometry x="710" y="490" width="70" height="70" as="geometry" />
        </mxCell>
        <mxCell id="rWnAVEmdezh-Uz3qvkcR-9" value="" style="edgeStyle=orthogonalEdgeStyle;rounded=0;orthogonalLoop=1;jettySize=auto;html=1;" edge="1" parent="1" source="rWnAVEmdezh-Uz3qvkcR-6" target="rWnAVEmdezh-Uz3qvkcR-3">
          <mxGeometry relative="1" as="geometry" />
        </mxCell>
        <mxCell id="rWnAVEmdezh-Uz3qvkcR-6" value="Hbase" style="strokeWidth=2;html=1;shape=mxgraph.flowchart.database;whiteSpace=wrap;labelBackgroundColor=none;" vertex="1" parent="1">
          <mxGeometry x="200" y="355" width="70" height="70" as="geometry" />
        </mxCell>
        <mxCell id="rWnAVEmdezh-Uz3qvkcR-17" value="" style="edgeStyle=none;rounded=0;orthogonalLoop=1;jettySize=auto;html=1;" edge="1" parent="1" source="rWnAVEmdezh-Uz3qvkcR-10" target="rWnAVEmdezh-Uz3qvkcR-2">
          <mxGeometry relative="1" as="geometry" />
        </mxCell>
        <mxCell id="rWnAVEmdezh-Uz3qvkcR-10" value="Flink" style="rounded=0;whiteSpace=wrap;html=1;" vertex="1" parent="1">
          <mxGeometry x="520" y="360" width="100" height="60" as="geometry" />
        </mxCell>
        <mxCell id="rWnAVEmdezh-Uz3qvkcR-16" value="" style="endArrow=classic;html=1;rounded=0;exitX=0.5;exitY=0;exitDx=0;exitDy=0;exitPerimeter=0;entryX=0.5;entryY=0;entryDx=0;entryDy=0;entryPerimeter=0;dashed=1;" edge="1" parent="1" source="rWnAVEmdezh-Uz3qvkcR-10" target="rWnAVEmdezh-Uz3qvkcR-6">
          <mxGeometry width="50" height="50" relative="1" as="geometry">
            <mxPoint x="400" y="390" as="sourcePoint" />
            <mxPoint x="450" y="340" as="targetPoint" />
            <Array as="points">
              <mxPoint x="570" y="310" />
              <mxPoint x="235" y="310" />
            </Array>
          </mxGeometry>
        </mxCell>
        <mxCell id="rWnAVEmdezh-Uz3qvkcR-22" value="UDF 反查" style="text;html=1;align=center;verticalAlign=middle;resizable=0;points=[];autosize=1;strokeColor=none;fillColor=none;" vertex="1" parent="1">
          <mxGeometry x="370" y="280" width="80" height="30" as="geometry" />
        </mxCell>
        <mxCell id="rWnAVEmdezh-Uz3qvkcR-23" value="Replicate" style="text;html=1;align=center;verticalAlign=middle;resizable=0;points=[];autosize=1;strokeColor=none;fillColor=none;" vertex="1" parent="1">
          <mxGeometry x="280" y="390" width="70" height="30" as="geometry" />
        </mxCell>
        <mxCell id="rWnAVEmdezh-Uz3qvkcR-24" value="离线修复" style="text;html=1;align=center;verticalAlign=middle;resizable=0;points=[];autosize=1;strokeColor=none;fillColor=none;" vertex="1" parent="1">
          <mxGeometry x="620" y="535" width="70" height="30" as="geometry" />
        </mxCell>
        <mxCell id="rWnAVEmdezh-Uz3qvkcR-25" value="&lt;font style=&quot;font-size: 11px;&quot;&gt;RealTime DWS&lt;/font&gt;" style="strokeWidth=2;html=1;shape=mxgraph.flowchart.database;whiteSpace=wrap;labelBackgroundColor=none;align=center;fontSize=11;" vertex="1" parent="1">
          <mxGeometry x="535" y="490" width="70" height="70" as="geometry" />
        </mxCell>
        <mxCell id="rWnAVEmdezh-Uz3qvkcR-26" style="edgeStyle=none;rounded=0;orthogonalLoop=1;jettySize=auto;html=1;exitX=0.5;exitY=1;exitDx=0;exitDy=0;entryX=0.5;entryY=0;entryDx=0;entryDy=0;entryPerimeter=0;" edge="1" parent="1" source="rWnAVEmdezh-Uz3qvkcR-10" target="rWnAVEmdezh-Uz3qvkcR-25">
          <mxGeometry relative="1" as="geometry" />
        </mxCell>
      </root>
    </mxGraphModel>
  </diagram>
</mxfile>
